<mxfile host="app.diagrams.net" modified="2022-10-22T05:51:15.527Z" agent="5.0 (Macintosh; Intel Mac OS X 10_15_7) AppleWebKit/537.36 (KHTML, like Gecko) Chrome/106.0.0.0 Safari/537.36" etag="dagZS9GZEIX1GmXyIkhO" version="20.5.0" type="github">
  <diagram id="Ycc4swXcvA0KvLu2h9gZ" name="第 1 页">
    <mxGraphModel dx="976" dy="665" grid="1" gridSize="10" guides="1" tooltips="1" connect="1" arrows="1" fold="1" page="1" pageScale="1" pageWidth="827" pageHeight="1169" math="0" shadow="0">
      <root>
        <mxCell id="0" />
        <mxCell id="1" parent="0" />
        <mxCell id="38L31gsBbCRUs4d6Ux4B-2" value="" style="rounded=0;whiteSpace=wrap;html=1;" vertex="1" parent="1">
          <mxGeometry x="110" y="50" width="360" height="530" as="geometry" />
        </mxCell>
        <mxCell id="38L31gsBbCRUs4d6Ux4B-3" value="" style="rounded=0;whiteSpace=wrap;html=1;" vertex="1" parent="1">
          <mxGeometry x="130" y="70" width="120" height="170" as="geometry" />
        </mxCell>
        <mxCell id="38L31gsBbCRUs4d6Ux4B-5" value="" style="rounded=0;whiteSpace=wrap;html=1;" vertex="1" parent="1">
          <mxGeometry x="320" y="70" width="120" height="170" as="geometry" />
        </mxCell>
        <mxCell id="38L31gsBbCRUs4d6Ux4B-6" value="" style="rounded=0;whiteSpace=wrap;html=1;" vertex="1" parent="1">
          <mxGeometry x="140" y="80" width="100" height="150" as="geometry" />
        </mxCell>
      </root>
    </mxGraphModel>
  </diagram>
</mxfile>
